<?xml version="1.0" encoding="UTF-8" standalone="no"?>
<svg width="90.3111mm" height="214.842mm"
 viewBox="0 0 256 609"
 xmlns="http://www.w3.org/2000/svg" xmlns:xlink="http://www.w3.org/1999/xlink" version="1.2" baseProfile="tiny">
<title>Qt SVG Document</title>
<desc>Generated with Qt</desc>
<defs>
</defs>
<g fill="none" stroke="black" stroke-width="1" fill-rule="evenodd" stroke-linecap="square" stroke-linejoin="bevel" >

<g fill="none" stroke="#000000" stroke-opacity="1" stroke-width="1" stroke-linecap="square" stroke-linejoin="bevel" transform="matrix(1,0,0,1,0,0)"
font-family="Microsoft YaHei UI" font-size="9" font-weight="400" font-style="normal" 
>
</g>

<g fill="none" stroke="#000000" stroke-opacity="1" stroke-width="1" stroke-linecap="square" stroke-linejoin="bevel" transform="matrix(1,0,0,1,0,0)"
font-family="Microsoft YaHei UI" font-size="9" font-weight="400" font-style="normal" 
>
</g>

<g fill="none" stroke="#000000" stroke-opacity="1" stroke-width="1" stroke-linecap="square" stroke-linejoin="bevel" transform="matrix(0.0776699,0,0,0.0776699,112.621,37.1262)"
font-family="Microsoft YaHei UI" font-size="9" font-weight="400" font-style="normal" 
>
</g>

<g fill="#ffffff" fill-opacity="1" stroke="#000000" stroke-opacity="1" stroke-width="4" stroke-linecap="square" stroke-linejoin="bevel" transform="matrix(0.0776699,0,0,0.0776699,112.621,37.1262)"
font-family="Microsoft YaHei UI" font-size="9" font-weight="400" font-style="normal" 
>
<path vector-effect="none" fill-rule="evenodd" d="M-294,0 C-294,-67.3787 -241.349,-122 -176.4,-122 L176.4,-122 C241.349,-122 294,-67.3787 294,0 C294,67.3787 241.349,122 176.4,122 L-176.4,122 C-241.349,122 -294,67.3787 -294,0 "/>
</g>

<g fill="none" stroke="#000000" stroke-opacity="1" stroke-width="1" stroke-linecap="square" stroke-linejoin="bevel" transform="matrix(0.0776699,0,0,0.0776699,112.621,37.1262)"
font-family="Microsoft YaHei UI" font-size="9" font-weight="400" font-style="normal" 
>
</g>

<g fill="none" stroke="#000000" stroke-opacity="1" stroke-width="1" stroke-linecap="square" stroke-linejoin="bevel" transform="matrix(0.0776699,0,0,0.0776699,111.456,37.1262)"
font-family="Microsoft YaHei UI" font-size="9" font-weight="400" font-style="normal" 
>
</g>

<g fill="none" stroke="#000000" stroke-opacity="1" stroke-width="1" stroke-linecap="square" stroke-linejoin="bevel" transform="matrix(0.0776699,0,0,0.0776699,111.456,37.1262)"
font-family="Microsoft YaHei UI" font-size="9" font-weight="400" font-style="normal" 
>
</g>

<g fill="none" stroke="#000000" stroke-opacity="1" stroke-width="1" stroke-linecap="square" stroke-linejoin="bevel" transform="matrix(0.31068,0,0,0.31068,92.2718,32.6214)"
font-family="Microsoft YaHei UI" font-size="9" font-weight="400" font-style="normal" 
>
</g>

<g fill="none" stroke="#000000" stroke-opacity="1" stroke-width="1" stroke-linecap="square" stroke-linejoin="bevel" transform="matrix(0.31068,0,0,0.31068,92.2718,32.6214)"
font-family="Microsoft YaHei UI" font-size="9" font-weight="400" font-style="normal" 
>
</g>

<g fill="none" stroke="#000000" stroke-opacity="1" stroke-width="1" stroke-linecap="square" stroke-linejoin="bevel" transform="matrix(0.31068,0,0,0.31068,92.2718,32.6214)"
font-family="Microsoft YaHei UI" font-size="9" font-weight="400" font-style="normal" 
>
</g>

<g fill="none" stroke="#000000" stroke-opacity="1" stroke-width="1" stroke-linecap="square" stroke-linejoin="bevel" transform="matrix(0.31068,0,0,0.31068,92.2718,32.6214)"
font-family="Microsoft YaHei UI" font-size="9" font-weight="400" font-style="normal" 
>
<text fill="#000000" fill-opacity="1" stroke="none" xml:space="preserve" x="4" y="20.25" font-family="Microsoft YaHei UI" font-size="12" font-weight="400" font-style="normal" 
 >          开始</text>
</g>

<g fill="none" stroke="#000000" stroke-opacity="1" stroke-width="1" stroke-linecap="square" stroke-linejoin="bevel" transform="matrix(0.31068,0,0,0.31068,92.2718,32.6214)"
font-family="Microsoft YaHei UI" font-size="9" font-weight="400" font-style="normal" 
>
</g>

<g fill="none" stroke="#000000" stroke-opacity="1" stroke-width="1" stroke-linecap="square" stroke-linejoin="bevel" transform="matrix(1,0,0,1,0,0)"
font-family="Microsoft YaHei UI" font-size="9" font-weight="400" font-style="normal" 
>
</g>

<g fill="none" stroke="#000000" stroke-opacity="1" stroke-width="1" stroke-linecap="square" stroke-linejoin="bevel" transform="matrix(1,0,0,1,0,0)"
font-family="Microsoft YaHei UI" font-size="9" font-weight="400" font-style="normal" 
>
</g>

<g fill="none" stroke="#000000" stroke-opacity="1" stroke-width="1" stroke-linecap="square" stroke-linejoin="bevel" transform="matrix(0.31068,0,0,0.31068,92.2718,32.6214)"
font-family="Microsoft YaHei UI" font-size="9" font-weight="400" font-style="normal" 
>
</g>

<g fill="none" stroke="#000000" stroke-opacity="1" stroke-width="1" stroke-linecap="square" stroke-linejoin="bevel" transform="matrix(0.31068,0,0,0.31068,92.2718,32.6214)"
font-family="Microsoft YaHei UI" font-size="9" font-weight="400" font-style="normal" 
>
</g>

<g fill="none" stroke="#000000" stroke-opacity="1" stroke-width="1" stroke-linecap="square" stroke-linejoin="bevel" transform="matrix(0.31068,0,0,0.31068,92.2718,32.6214)"
font-family="Microsoft YaHei UI" font-size="9" font-weight="400" font-style="normal" 
>
</g>

<g fill="none" stroke="#000000" stroke-opacity="1" stroke-width="1" stroke-linecap="square" stroke-linejoin="bevel" transform="matrix(0.0776699,0,0,0.0776699,112.621,84.3495)"
font-family="Microsoft YaHei UI" font-size="9" font-weight="400" font-style="normal" 
>
</g>

<g fill="#ffffff" fill-opacity="1" stroke="#000000" stroke-opacity="1" stroke-width="4" stroke-linecap="square" stroke-linejoin="bevel" transform="matrix(0.0776699,0,0,0.0776699,112.621,84.3495)"
font-family="Microsoft YaHei UI" font-size="9" font-weight="400" font-style="normal" 
>
<path vector-effect="none" fill-rule="evenodd" d="M-308.4,-206 L308.4,-206 L308.4,206 L-308.4,206 L-308.4,-206"/>
</g>

<g fill="none" stroke="#000000" stroke-opacity="1" stroke-width="1" stroke-linecap="square" stroke-linejoin="bevel" transform="matrix(0.0776699,0,0,0.0776699,112.621,84.3495)"
font-family="Microsoft YaHei UI" font-size="9" font-weight="400" font-style="normal" 
>
</g>

<g fill="none" stroke="#000000" stroke-opacity="1" stroke-width="1" stroke-linecap="square" stroke-linejoin="bevel" transform="matrix(0.0776699,0,0,0.0776699,111.301,84.3495)"
font-family="Microsoft YaHei UI" font-size="9" font-weight="400" font-style="normal" 
>
</g>

<g fill="none" stroke="#000000" stroke-opacity="1" stroke-width="1" stroke-linecap="square" stroke-linejoin="bevel" transform="matrix(0.0776699,0,0,0.0776699,111.301,84.3495)"
font-family="Microsoft YaHei UI" font-size="9" font-weight="400" font-style="normal" 
>
</g>

<g fill="none" stroke="#000000" stroke-opacity="1" stroke-width="1" stroke-linecap="square" stroke-linejoin="bevel" transform="matrix(0.31068,0,0,0.31068,96.0777,79.8447)"
font-family="Microsoft YaHei UI" font-size="9" font-weight="400" font-style="normal" 
>
</g>

<g fill="none" stroke="#000000" stroke-opacity="1" stroke-width="1" stroke-linecap="square" stroke-linejoin="bevel" transform="matrix(0.31068,0,0,0.31068,96.0777,79.8447)"
font-family="Microsoft YaHei UI" font-size="9" font-weight="400" font-style="normal" 
>
</g>

<g fill="none" stroke="#000000" stroke-opacity="1" stroke-width="1" stroke-linecap="square" stroke-linejoin="bevel" transform="matrix(0.31068,0,0,0.31068,96.0777,79.8447)"
font-family="Microsoft YaHei UI" font-size="9" font-weight="400" font-style="normal" 
>
</g>

<g fill="none" stroke="#000000" stroke-opacity="1" stroke-width="1" stroke-linecap="square" stroke-linejoin="bevel" transform="matrix(0.31068,0,0,0.31068,96.0777,79.8447)"
font-family="Microsoft YaHei UI" font-size="9" font-weight="400" font-style="normal" 
>
<text fill="#000000" fill-opacity="1" stroke="none" xml:space="preserve" x="4" y="20.25" font-family="Microsoft YaHei UI" font-size="12" font-weight="400" font-style="normal" 
 >      流程</text>
</g>

<g fill="none" stroke="#000000" stroke-opacity="1" stroke-width="1" stroke-linecap="square" stroke-linejoin="bevel" transform="matrix(0.31068,0,0,0.31068,96.0777,79.8447)"
font-family="Microsoft YaHei UI" font-size="9" font-weight="400" font-style="normal" 
>
</g>

<g fill="none" stroke="#000000" stroke-opacity="1" stroke-width="1" stroke-linecap="square" stroke-linejoin="bevel" transform="matrix(1,0,0,1,0,0)"
font-family="Microsoft YaHei UI" font-size="9" font-weight="400" font-style="normal" 
>
</g>

<g fill="none" stroke="#000000" stroke-opacity="1" stroke-width="1" stroke-linecap="square" stroke-linejoin="bevel" transform="matrix(1,0,0,1,0,0)"
font-family="Microsoft YaHei UI" font-size="9" font-weight="400" font-style="normal" 
>
</g>

<g fill="none" stroke="#000000" stroke-opacity="1" stroke-width="1" stroke-linecap="square" stroke-linejoin="bevel" transform="matrix(0.31068,0,0,0.31068,96.0777,79.8447)"
font-family="Microsoft YaHei UI" font-size="9" font-weight="400" font-style="normal" 
>
</g>

<g fill="none" stroke="#000000" stroke-opacity="1" stroke-width="1" stroke-linecap="square" stroke-linejoin="bevel" transform="matrix(0.31068,0,0,0.31068,96.0777,79.8447)"
font-family="Microsoft YaHei UI" font-size="9" font-weight="400" font-style="normal" 
>
</g>

<g fill="none" stroke="#000000" stroke-opacity="1" stroke-width="1" stroke-linecap="square" stroke-linejoin="bevel" transform="matrix(0.31068,0,0,0.31068,96.0777,79.8447)"
font-family="Microsoft YaHei UI" font-size="9" font-weight="400" font-style="normal" 
>
</g>

<g fill="none" stroke="#000000" stroke-opacity="1" stroke-width="1" stroke-linecap="square" stroke-linejoin="bevel" transform="matrix(0.0776699,0,0,0.0776699,112.621,128.155)"
font-family="Microsoft YaHei UI" font-size="9" font-weight="400" font-style="normal" 
>
</g>

<g fill="#ffffff" fill-opacity="1" stroke="#000000" stroke-opacity="1" stroke-width="4" stroke-linecap="square" stroke-linejoin="bevel" transform="matrix(0.0776699,0,0,0.0776699,112.621,128.155)"
font-family="Microsoft YaHei UI" font-size="9" font-weight="400" font-style="normal" 
>
<path vector-effect="none" fill-rule="evenodd" d="M0,-186 L346,0 L0,186 L-346,0 L0,-186"/>
</g>

<g fill="none" stroke="#000000" stroke-opacity="1" stroke-width="1" stroke-linecap="square" stroke-linejoin="bevel" transform="matrix(0.0776699,0,0,0.0776699,112.621,128.155)"
font-family="Microsoft YaHei UI" font-size="9" font-weight="400" font-style="normal" 
>
</g>

<g fill="none" stroke="#000000" stroke-opacity="1" stroke-width="1" stroke-linecap="square" stroke-linejoin="bevel" transform="matrix(0.0776699,0,0,0.0776699,113.709,128.155)"
font-family="Microsoft YaHei UI" font-size="9" font-weight="400" font-style="normal" 
>
</g>

<g fill="none" stroke="#000000" stroke-opacity="1" stroke-width="1" stroke-linecap="square" stroke-linejoin="bevel" transform="matrix(0.0776699,0,0,0.0776699,113.709,128.155)"
font-family="Microsoft YaHei UI" font-size="9" font-weight="400" font-style="normal" 
>
</g>

<g fill="none" stroke="#000000" stroke-opacity="1" stroke-width="1" stroke-linecap="square" stroke-linejoin="bevel" transform="matrix(0.31068,0,0,0.31068,95.1068,123.65)"
font-family="Microsoft YaHei UI" font-size="9" font-weight="400" font-style="normal" 
>
</g>

<g fill="none" stroke="#000000" stroke-opacity="1" stroke-width="1" stroke-linecap="square" stroke-linejoin="bevel" transform="matrix(0.31068,0,0,0.31068,95.1068,123.65)"
font-family="Microsoft YaHei UI" font-size="9" font-weight="400" font-style="normal" 
>
</g>

<g fill="none" stroke="#000000" stroke-opacity="1" stroke-width="1" stroke-linecap="square" stroke-linejoin="bevel" transform="matrix(0.31068,0,0,0.31068,95.1068,123.65)"
font-family="Microsoft YaHei UI" font-size="9" font-weight="400" font-style="normal" 
>
</g>

<g fill="none" stroke="#000000" stroke-opacity="1" stroke-width="1" stroke-linecap="square" stroke-linejoin="bevel" transform="matrix(0.31068,0,0,0.31068,95.1068,123.65)"
font-family="Microsoft YaHei UI" font-size="9" font-weight="400" font-style="normal" 
>
<text fill="#000000" fill-opacity="1" stroke="none" xml:space="preserve" x="4" y="20.25" font-family="Microsoft YaHei UI" font-size="12" font-weight="400" font-style="normal" 
 >        判定</text>
</g>

<g fill="none" stroke="#000000" stroke-opacity="1" stroke-width="1" stroke-linecap="square" stroke-linejoin="bevel" transform="matrix(0.31068,0,0,0.31068,95.1068,123.65)"
font-family="Microsoft YaHei UI" font-size="9" font-weight="400" font-style="normal" 
>
</g>

<g fill="none" stroke="#000000" stroke-opacity="1" stroke-width="1" stroke-linecap="square" stroke-linejoin="bevel" transform="matrix(1,0,0,1,0,0)"
font-family="Microsoft YaHei UI" font-size="9" font-weight="400" font-style="normal" 
>
</g>

<g fill="none" stroke="#000000" stroke-opacity="1" stroke-width="1" stroke-linecap="square" stroke-linejoin="bevel" transform="matrix(1,0,0,1,0,0)"
font-family="Microsoft YaHei UI" font-size="9" font-weight="400" font-style="normal" 
>
</g>

<g fill="none" stroke="#000000" stroke-opacity="1" stroke-width="1" stroke-linecap="square" stroke-linejoin="bevel" transform="matrix(0.31068,0,0,0.31068,95.1068,123.65)"
font-family="Microsoft YaHei UI" font-size="9" font-weight="400" font-style="normal" 
>
</g>

<g fill="none" stroke="#000000" stroke-opacity="1" stroke-width="1" stroke-linecap="square" stroke-linejoin="bevel" transform="matrix(0.31068,0,0,0.31068,95.1068,123.65)"
font-family="Microsoft YaHei UI" font-size="9" font-weight="400" font-style="normal" 
>
</g>

<g fill="none" stroke="#000000" stroke-opacity="1" stroke-width="1" stroke-linecap="square" stroke-linejoin="bevel" transform="matrix(0.31068,0,0,0.31068,95.1068,123.65)"
font-family="Microsoft YaHei UI" font-size="9" font-weight="400" font-style="normal" 
>
</g>

<g fill="none" stroke="#000000" stroke-opacity="1" stroke-width="1" stroke-linecap="square" stroke-linejoin="bevel" transform="matrix(0.0776699,0,0,0.0776699,112.419,185.32)"
font-family="Microsoft YaHei UI" font-size="9" font-weight="400" font-style="normal" 
>
</g>

<g fill="#ffffff" fill-opacity="1" stroke="#000000" stroke-opacity="1" stroke-width="4" stroke-linecap="square" stroke-linejoin="bevel" transform="matrix(0.0776699,0,0,0.0776699,112.419,185.32)"
font-family="Microsoft YaHei UI" font-size="9" font-weight="400" font-style="normal" 
>
<path vector-effect="none" fill-rule="evenodd" d="M-325.4,-194.8 L325.4,-194.8 L325.4,194.8 L-325.4,194.8 L-325.4,-194.8"/>
</g>

<g fill="none" stroke="#000000" stroke-opacity="1" stroke-width="1" stroke-linecap="square" stroke-linejoin="bevel" transform="matrix(0.0776699,0,0,0.0776699,112.419,185.32)"
font-family="Microsoft YaHei UI" font-size="9" font-weight="400" font-style="normal" 
>
</g>

<g fill="none" stroke="#000000" stroke-opacity="1" stroke-width="1" stroke-linecap="square" stroke-linejoin="bevel" transform="matrix(0.0776699,0,0,0.0776699,113.538,185.32)"
font-family="Microsoft YaHei UI" font-size="9" font-weight="400" font-style="normal" 
>
</g>

<g fill="none" stroke="#000000" stroke-opacity="1" stroke-width="1" stroke-linecap="square" stroke-linejoin="bevel" transform="matrix(0.0776699,0,0,0.0776699,113.538,185.32)"
font-family="Microsoft YaHei UI" font-size="9" font-weight="400" font-style="normal" 
>
</g>

<g fill="none" stroke="#000000" stroke-opacity="1" stroke-width="1" stroke-linecap="square" stroke-linejoin="bevel" transform="matrix(0.31068,0,0,0.31068,95.1689,180.816)"
font-family="Microsoft YaHei UI" font-size="9" font-weight="400" font-style="normal" 
>
</g>

<g fill="none" stroke="#000000" stroke-opacity="1" stroke-width="1" stroke-linecap="square" stroke-linejoin="bevel" transform="matrix(0.31068,0,0,0.31068,95.1689,180.816)"
font-family="Microsoft YaHei UI" font-size="9" font-weight="400" font-style="normal" 
>
</g>

<g fill="none" stroke="#000000" stroke-opacity="1" stroke-width="1" stroke-linecap="square" stroke-linejoin="bevel" transform="matrix(0.31068,0,0,0.31068,95.1689,180.816)"
font-family="Microsoft YaHei UI" font-size="9" font-weight="400" font-style="normal" 
>
</g>

<g fill="none" stroke="#000000" stroke-opacity="1" stroke-width="1" stroke-linecap="square" stroke-linejoin="bevel" transform="matrix(0.31068,0,0,0.31068,95.1689,180.816)"
font-family="Microsoft YaHei UI" font-size="9" font-weight="400" font-style="normal" 
>
<text fill="#000000" fill-opacity="1" stroke="none" xml:space="preserve" x="4" y="20.25" font-family="Microsoft YaHei UI" font-size="12" font-weight="400" font-style="normal" 
 >       流程</text>
</g>

<g fill="none" stroke="#000000" stroke-opacity="1" stroke-width="1" stroke-linecap="square" stroke-linejoin="bevel" transform="matrix(0.31068,0,0,0.31068,95.1689,180.816)"
font-family="Microsoft YaHei UI" font-size="9" font-weight="400" font-style="normal" 
>
</g>

<g fill="none" stroke="#000000" stroke-opacity="1" stroke-width="1" stroke-linecap="square" stroke-linejoin="bevel" transform="matrix(1,0,0,1,0,0)"
font-family="Microsoft YaHei UI" font-size="9" font-weight="400" font-style="normal" 
>
</g>

<g fill="none" stroke="#000000" stroke-opacity="1" stroke-width="1" stroke-linecap="square" stroke-linejoin="bevel" transform="matrix(1,0,0,1,0,0)"
font-family="Microsoft YaHei UI" font-size="9" font-weight="400" font-style="normal" 
>
</g>

<g fill="none" stroke="#000000" stroke-opacity="1" stroke-width="1" stroke-linecap="square" stroke-linejoin="bevel" transform="matrix(0.31068,0,0,0.31068,95.1689,180.816)"
font-family="Microsoft YaHei UI" font-size="9" font-weight="400" font-style="normal" 
>
</g>

<g fill="none" stroke="#000000" stroke-opacity="1" stroke-width="1" stroke-linecap="square" stroke-linejoin="bevel" transform="matrix(0.31068,0,0,0.31068,95.1689,180.816)"
font-family="Microsoft YaHei UI" font-size="9" font-weight="400" font-style="normal" 
>
</g>

<g fill="none" stroke="#000000" stroke-opacity="1" stroke-width="1" stroke-linecap="square" stroke-linejoin="bevel" transform="matrix(0.31068,0,0,0.31068,95.1689,180.816)"
font-family="Microsoft YaHei UI" font-size="9" font-weight="400" font-style="normal" 
>
</g>

<g fill="none" stroke="#000000" stroke-opacity="1" stroke-width="1" stroke-linecap="square" stroke-linejoin="bevel" transform="matrix(0.0776699,0,0,0.0776699,213.934,185.911)"
font-family="Microsoft YaHei UI" font-size="9" font-weight="400" font-style="normal" 
>
</g>

<g fill="#ffffff" fill-opacity="1" stroke="#000000" stroke-opacity="1" stroke-width="4" stroke-linecap="square" stroke-linejoin="bevel" transform="matrix(0.0776699,0,0,0.0776699,213.934,185.911)"
font-family="Microsoft YaHei UI" font-size="9" font-weight="400" font-style="normal" 
>
<path vector-effect="none" fill-rule="evenodd" d="M-324,-187.2 L324,-187.2 L324,187.2 L-324,187.2 L-324,-187.2"/>
</g>

<g fill="none" stroke="#000000" stroke-opacity="1" stroke-width="1" stroke-linecap="square" stroke-linejoin="bevel" transform="matrix(0.0776699,0,0,0.0776699,213.934,185.911)"
font-family="Microsoft YaHei UI" font-size="9" font-weight="400" font-style="normal" 
>
</g>

<g fill="none" stroke="#000000" stroke-opacity="1" stroke-width="1" stroke-linecap="square" stroke-linejoin="bevel" transform="matrix(0.0776699,0,0,0.0776699,213.934,185.911)"
font-family="Microsoft YaHei UI" font-size="9" font-weight="400" font-style="normal" 
>
</g>

<g fill="none" stroke="#000000" stroke-opacity="1" stroke-width="1" stroke-linecap="square" stroke-linejoin="bevel" transform="matrix(0.0776699,0,0,0.0776699,213.934,185.911)"
font-family="Microsoft YaHei UI" font-size="9" font-weight="400" font-style="normal" 
>
</g>

<g fill="none" stroke="#000000" stroke-opacity="1" stroke-width="1" stroke-linecap="square" stroke-linejoin="bevel" transform="matrix(0.31068,0,0,0.31068,196.614,181.406)"
font-family="Microsoft YaHei UI" font-size="9" font-weight="400" font-style="normal" 
>
</g>

<g fill="none" stroke="#000000" stroke-opacity="1" stroke-width="1" stroke-linecap="square" stroke-linejoin="bevel" transform="matrix(0.31068,0,0,0.31068,196.614,181.406)"
font-family="Microsoft YaHei UI" font-size="9" font-weight="400" font-style="normal" 
>
</g>

<g fill="none" stroke="#000000" stroke-opacity="1" stroke-width="1" stroke-linecap="square" stroke-linejoin="bevel" transform="matrix(0.31068,0,0,0.31068,196.614,181.406)"
font-family="Microsoft YaHei UI" font-size="9" font-weight="400" font-style="normal" 
>
</g>

<g fill="none" stroke="#000000" stroke-opacity="1" stroke-width="1" stroke-linecap="square" stroke-linejoin="bevel" transform="matrix(0.31068,0,0,0.31068,196.614,181.406)"
font-family="Microsoft YaHei UI" font-size="9" font-weight="400" font-style="normal" 
>
<text fill="#000000" fill-opacity="1" stroke="none" xml:space="preserve" x="4" y="20.25" font-family="Microsoft YaHei UI" font-size="12" font-weight="400" font-style="normal" 
 >        流程</text>
</g>

<g fill="none" stroke="#000000" stroke-opacity="1" stroke-width="1" stroke-linecap="square" stroke-linejoin="bevel" transform="matrix(0.31068,0,0,0.31068,196.614,181.406)"
font-family="Microsoft YaHei UI" font-size="9" font-weight="400" font-style="normal" 
>
</g>

<g fill="none" stroke="#000000" stroke-opacity="1" stroke-width="1" stroke-linecap="square" stroke-linejoin="bevel" transform="matrix(1,0,0,1,0,0)"
font-family="Microsoft YaHei UI" font-size="9" font-weight="400" font-style="normal" 
>
</g>

<g fill="none" stroke="#000000" stroke-opacity="1" stroke-width="1" stroke-linecap="square" stroke-linejoin="bevel" transform="matrix(1,0,0,1,0,0)"
font-family="Microsoft YaHei UI" font-size="9" font-weight="400" font-style="normal" 
>
</g>

<g fill="none" stroke="#000000" stroke-opacity="1" stroke-width="1" stroke-linecap="square" stroke-linejoin="bevel" transform="matrix(0.31068,0,0,0.31068,196.614,181.406)"
font-family="Microsoft YaHei UI" font-size="9" font-weight="400" font-style="normal" 
>
</g>

<g fill="none" stroke="#000000" stroke-opacity="1" stroke-width="1" stroke-linecap="square" stroke-linejoin="bevel" transform="matrix(0.31068,0,0,0.31068,196.614,181.406)"
font-family="Microsoft YaHei UI" font-size="9" font-weight="400" font-style="normal" 
>
</g>

<g fill="none" stroke="#000000" stroke-opacity="1" stroke-width="1" stroke-linecap="square" stroke-linejoin="bevel" transform="matrix(0.31068,0,0,0.31068,196.614,181.406)"
font-family="Microsoft YaHei UI" font-size="9" font-weight="400" font-style="normal" 
>
</g>

<g fill="none" stroke="#000000" stroke-opacity="1" stroke-width="1" stroke-linecap="square" stroke-linejoin="bevel" transform="matrix(0.0776699,0,0,0.0776699,165.282,122.159)"
font-family="Microsoft YaHei UI" font-size="9" font-weight="400" font-style="normal" 
>
</g>

<g fill="none" stroke="#000000" stroke-opacity="1" stroke-width="1" stroke-linecap="square" stroke-linejoin="bevel" transform="matrix(0.0776699,0,0,0.0776699,165.282,122.159)"
font-family="Microsoft YaHei UI" font-size="9" font-weight="400" font-style="normal" 
>
</g>

<g fill="none" stroke="#000000" stroke-opacity="1" stroke-width="1" stroke-linecap="square" stroke-linejoin="bevel" transform="matrix(0.31068,0,0,0.31068,161.617,118.431)"
font-family="Microsoft YaHei UI" font-size="9" font-weight="400" font-style="normal" 
>
</g>

<g fill="none" stroke="#000000" stroke-opacity="1" stroke-width="1" stroke-linecap="square" stroke-linejoin="bevel" transform="matrix(0.31068,0,0,0.31068,161.617,118.431)"
font-family="Microsoft YaHei UI" font-size="9" font-weight="400" font-style="normal" 
>
</g>

<g fill="none" stroke="#000000" stroke-opacity="1" stroke-width="1" stroke-linecap="square" stroke-linejoin="bevel" transform="matrix(0.31068,0,0,0.31068,161.617,118.431)"
font-family="Microsoft YaHei UI" font-size="9" font-weight="400" font-style="normal" 
>
</g>

<g fill="none" stroke="#000000" stroke-opacity="1" stroke-width="1" stroke-linecap="square" stroke-linejoin="bevel" transform="matrix(0.31068,0,0,0.31068,161.617,118.431)"
font-family="Microsoft YaHei UI" font-size="9" font-weight="400" font-style="normal" 
>
<text fill="#000000" fill-opacity="1" stroke="none" xml:space="preserve" x="4" y="16.1875" font-family="Microsoft YaHei UI" font-size="9" font-weight="400" font-style="normal" 
 >否</text>
</g>

<g fill="none" stroke="#000000" stroke-opacity="1" stroke-width="1" stroke-linecap="square" stroke-linejoin="bevel" transform="matrix(0.31068,0,0,0.31068,161.617,118.431)"
font-family="Microsoft YaHei UI" font-size="9" font-weight="400" font-style="normal" 
>
</g>

<g fill="none" stroke="#000000" stroke-opacity="1" stroke-width="1" stroke-linecap="square" stroke-linejoin="bevel" transform="matrix(1,0,0,1,0,0)"
font-family="Microsoft YaHei UI" font-size="9" font-weight="400" font-style="normal" 
>
</g>

<g fill="none" stroke="#000000" stroke-opacity="1" stroke-width="1" stroke-linecap="square" stroke-linejoin="bevel" transform="matrix(1,0,0,1,0,0)"
font-family="Microsoft YaHei UI" font-size="9" font-weight="400" font-style="normal" 
>
</g>

<g fill="none" stroke="#000000" stroke-opacity="1" stroke-width="1" stroke-linecap="square" stroke-linejoin="bevel" transform="matrix(0.31068,0,0,0.31068,161.617,118.431)"
font-family="Microsoft YaHei UI" font-size="9" font-weight="400" font-style="normal" 
>
</g>

<g fill="none" stroke="#000000" stroke-opacity="1" stroke-width="1" stroke-linecap="square" stroke-linejoin="bevel" transform="matrix(0.31068,0,0,0.31068,161.617,118.431)"
font-family="Microsoft YaHei UI" font-size="9" font-weight="400" font-style="normal" 
>
</g>

<g fill="none" stroke="#000000" stroke-opacity="1" stroke-width="1" stroke-linecap="square" stroke-linejoin="bevel" transform="matrix(0.31068,0,0,0.31068,161.617,118.431)"
font-family="Microsoft YaHei UI" font-size="9" font-weight="400" font-style="normal" 
>
</g>

<g fill="none" stroke="#000000" stroke-opacity="1" stroke-width="1" stroke-linecap="square" stroke-linejoin="bevel" transform="matrix(0.0776699,0,0,0.0776699,107.122,157.577)"
font-family="Microsoft YaHei UI" font-size="9" font-weight="400" font-style="normal" 
>
</g>

<g fill="none" stroke="#000000" stroke-opacity="1" stroke-width="1" stroke-linecap="square" stroke-linejoin="bevel" transform="matrix(0.0776699,0,0,0.0776699,107.122,157.577)"
font-family="Microsoft YaHei UI" font-size="9" font-weight="400" font-style="normal" 
>
</g>

<g fill="none" stroke="#000000" stroke-opacity="1" stroke-width="1" stroke-linecap="square" stroke-linejoin="bevel" transform="matrix(0.31068,0,0,0.31068,104.016,153.849)"
font-family="Microsoft YaHei UI" font-size="9" font-weight="400" font-style="normal" 
>
</g>

<g fill="none" stroke="#000000" stroke-opacity="1" stroke-width="1" stroke-linecap="square" stroke-linejoin="bevel" transform="matrix(0.31068,0,0,0.31068,104.016,153.849)"
font-family="Microsoft YaHei UI" font-size="9" font-weight="400" font-style="normal" 
>
</g>

<g fill="none" stroke="#000000" stroke-opacity="1" stroke-width="1" stroke-linecap="square" stroke-linejoin="bevel" transform="matrix(0.31068,0,0,0.31068,104.016,153.849)"
font-family="Microsoft YaHei UI" font-size="9" font-weight="400" font-style="normal" 
>
</g>

<g fill="none" stroke="#000000" stroke-opacity="1" stroke-width="1" stroke-linecap="square" stroke-linejoin="bevel" transform="matrix(0.31068,0,0,0.31068,104.016,153.849)"
font-family="Microsoft YaHei UI" font-size="9" font-weight="400" font-style="normal" 
>
<text fill="#000000" fill-opacity="1" stroke="none" xml:space="preserve" x="4" y="16.1875" font-family="Microsoft YaHei UI" font-size="9" font-weight="400" font-style="normal" 
 >是</text>
</g>

<g fill="none" stroke="#000000" stroke-opacity="1" stroke-width="1" stroke-linecap="square" stroke-linejoin="bevel" transform="matrix(0.31068,0,0,0.31068,104.016,153.849)"
font-family="Microsoft YaHei UI" font-size="9" font-weight="400" font-style="normal" 
>
</g>

<g fill="none" stroke="#000000" stroke-opacity="1" stroke-width="1" stroke-linecap="square" stroke-linejoin="bevel" transform="matrix(1,0,0,1,0,0)"
font-family="Microsoft YaHei UI" font-size="9" font-weight="400" font-style="normal" 
>
</g>

<g fill="none" stroke="#000000" stroke-opacity="1" stroke-width="1" stroke-linecap="square" stroke-linejoin="bevel" transform="matrix(1,0,0,1,0,0)"
font-family="Microsoft YaHei UI" font-size="9" font-weight="400" font-style="normal" 
>
</g>

<g fill="none" stroke="#000000" stroke-opacity="1" stroke-width="1" stroke-linecap="square" stroke-linejoin="bevel" transform="matrix(0.31068,0,0,0.31068,104.016,153.849)"
font-family="Microsoft YaHei UI" font-size="9" font-weight="400" font-style="normal" 
>
</g>

<g fill="none" stroke="#000000" stroke-opacity="1" stroke-width="1" stroke-linecap="square" stroke-linejoin="bevel" transform="matrix(0.31068,0,0,0.31068,104.016,153.849)"
font-family="Microsoft YaHei UI" font-size="9" font-weight="400" font-style="normal" 
>
</g>

<g fill="none" stroke="#000000" stroke-opacity="1" stroke-width="1" stroke-linecap="square" stroke-linejoin="bevel" transform="matrix(0.31068,0,0,0.31068,104.016,153.849)"
font-family="Microsoft YaHei UI" font-size="9" font-weight="400" font-style="normal" 
>
</g>

<g fill="none" stroke="#000000" stroke-opacity="1" stroke-width="1" stroke-linecap="square" stroke-linejoin="bevel" transform="matrix(0.0776699,0,0,0.0776699,128,168.388)"
font-family="Microsoft YaHei UI" font-size="9" font-weight="400" font-style="normal" 
>
</g>

<g fill="none" stroke="#000000" stroke-opacity="1" stroke-width="5" stroke-linecap="square" stroke-linejoin="bevel" transform="matrix(0.0776699,0,0,0.0776699,128,168.388)"
font-family="Microsoft YaHei UI" font-size="9" font-weight="400" font-style="normal" 
>
<polyline fill="none" vector-effect="none" points="148,-518 268,-518 268,-518 1106.4,-518 1106.4,-81.6 1106.4,38.4 " />
</g>

<g fill="#000000" fill-opacity="1" stroke="none" transform="matrix(0.0776699,0,0,0.0776699,128,168.388)"
font-family="Microsoft YaHei UI" font-size="9" font-weight="400" font-style="normal" 
>
<path vector-effect="none" fill-rule="evenodd" d="M1106.4,38.4 L1131.4,-4.90127 L1081.4,-4.90127 L1106.4,38.4"/>
</g>

<g fill="none" stroke="#000000" stroke-opacity="1" stroke-width="1" stroke-linecap="square" stroke-linejoin="bevel" transform="matrix(0.0776699,0,0,0.0776699,128,168.388)"
font-family="Microsoft YaHei UI" font-size="9" font-weight="400" font-style="normal" 
>
</g>

<g fill="none" stroke="#000000" stroke-opacity="1" stroke-width="1" stroke-linecap="square" stroke-linejoin="bevel" transform="matrix(0.0776699,0,0,0.0776699,128,168.388)"
font-family="Microsoft YaHei UI" font-size="9" font-weight="400" font-style="normal" 
>
</g>

<g fill="none" stroke="#000000" stroke-opacity="1" stroke-width="5" stroke-linecap="square" stroke-linejoin="bevel" transform="matrix(0.0776699,0,0,0.0776699,128,168.388)"
font-family="Microsoft YaHei UI" font-size="9" font-weight="400" font-style="normal" 
>
<polyline fill="none" vector-effect="none" points="1106.4,412.8 1106.4,532.8 1106.4,609.6 -196.8,609.6 -196.8,609.6 -196.8,609.6 " />
</g>

<g fill="none" stroke="#000000" stroke-opacity="1" stroke-width="1" stroke-linecap="square" stroke-linejoin="bevel" transform="matrix(0.0776699,0,0,0.0776699,128,168.388)"
font-family="Microsoft YaHei UI" font-size="9" font-weight="400" font-style="normal" 
>
</g>

<g fill="none" stroke="#000000" stroke-opacity="1" stroke-width="1" stroke-linecap="square" stroke-linejoin="bevel" transform="matrix(0.0776699,0,0,0.0776699,128,168.388)"
font-family="Microsoft YaHei UI" font-size="9" font-weight="400" font-style="normal" 
>
</g>

<g fill="none" stroke="#000000" stroke-opacity="1" stroke-width="5" stroke-linecap="square" stroke-linejoin="bevel" transform="matrix(0.0776699,0,0,0.0776699,128,168.388)"
font-family="Microsoft YaHei UI" font-size="9" font-weight="400" font-style="normal" 
>
<polyline fill="none" vector-effect="none" points="-200.6,412.8 -198,744 " />
</g>

<g fill="#000000" fill-opacity="1" stroke="none" transform="matrix(0.0776699,0,0,0.0776699,128,168.388)"
font-family="Microsoft YaHei UI" font-size="9" font-weight="400" font-style="normal" 
>
<path vector-effect="none" fill-rule="evenodd" d="M-198,744 L-173.341,700.504 L-223.339,700.896 L-198,744"/>
</g>

<g fill="none" stroke="#000000" stroke-opacity="1" stroke-width="1" stroke-linecap="square" stroke-linejoin="bevel" transform="matrix(0.0776699,0,0,0.0776699,128,168.388)"
font-family="Microsoft YaHei UI" font-size="9" font-weight="400" font-style="normal" 
>
</g>

<g fill="none" stroke="#000000" stroke-opacity="1" stroke-width="1" stroke-linecap="square" stroke-linejoin="bevel" transform="matrix(0.0776699,0,0,0.0776699,128,168.388)"
font-family="Microsoft YaHei UI" font-size="9" font-weight="400" font-style="normal" 
>
</g>

<g fill="none" stroke="#000000" stroke-opacity="1" stroke-width="5" stroke-linecap="square" stroke-linejoin="bevel" transform="matrix(0.0776699,0,0,0.0776699,128,168.388)"
font-family="Microsoft YaHei UI" font-size="9" font-weight="400" font-style="normal" 
>
<polyline fill="none" vector-effect="none" points="-198,-332 -200.6,23.2 " />
</g>

<g fill="#000000" fill-opacity="1" stroke="none" transform="matrix(0.0776699,0,0,0.0776699,128,168.388)"
font-family="Microsoft YaHei UI" font-size="9" font-weight="400" font-style="normal" 
>
<path vector-effect="none" fill-rule="evenodd" d="M-200.6,23.2 L-175.284,-19.9171 L-225.282,-20.2831 L-200.6,23.2"/>
</g>

<g fill="none" stroke="#000000" stroke-opacity="1" stroke-width="1" stroke-linecap="square" stroke-linejoin="bevel" transform="matrix(0.0776699,0,0,0.0776699,128,168.388)"
font-family="Microsoft YaHei UI" font-size="9" font-weight="400" font-style="normal" 
>
</g>

<g fill="none" stroke="#000000" stroke-opacity="1" stroke-width="1" stroke-linecap="square" stroke-linejoin="bevel" transform="matrix(0.0776699,0,0,0.0776699,128,168.388)"
font-family="Microsoft YaHei UI" font-size="9" font-weight="400" font-style="normal" 
>
</g>

<g fill="none" stroke="#000000" stroke-opacity="1" stroke-width="5" stroke-linecap="square" stroke-linejoin="bevel" transform="matrix(0.0776699,0,0,0.0776699,128,168.388)"
font-family="Microsoft YaHei UI" font-size="9" font-weight="400" font-style="normal" 
>
<polyline fill="none" vector-effect="none" points="-198,-876 -198,-704 " />
</g>

<g fill="#000000" fill-opacity="1" stroke="none" transform="matrix(0.0776699,0,0,0.0776699,128,168.388)"
font-family="Microsoft YaHei UI" font-size="9" font-weight="400" font-style="normal" 
>
<path vector-effect="none" fill-rule="evenodd" d="M-198,-704 L-173,-747.301 L-223,-747.301 L-198,-704"/>
</g>

<g fill="none" stroke="#000000" stroke-opacity="1" stroke-width="1" stroke-linecap="square" stroke-linejoin="bevel" transform="matrix(0.0776699,0,0,0.0776699,128,168.388)"
font-family="Microsoft YaHei UI" font-size="9" font-weight="400" font-style="normal" 
>
</g>

<g fill="none" stroke="#000000" stroke-opacity="1" stroke-width="1" stroke-linecap="square" stroke-linejoin="bevel" transform="matrix(0.0776699,0,0,0.0776699,128,168.388)"
font-family="Microsoft YaHei UI" font-size="9" font-weight="400" font-style="normal" 
>
</g>

<g fill="none" stroke="#000000" stroke-opacity="1" stroke-width="5" stroke-linecap="square" stroke-linejoin="bevel" transform="matrix(0.0776699,0,0,0.0776699,128,168.388)"
font-family="Microsoft YaHei UI" font-size="9" font-weight="400" font-style="normal" 
>
<polyline fill="none" vector-effect="none" points="-198,-1568 -198,-1288 " />
</g>

<g fill="#000000" fill-opacity="1" stroke="none" transform="matrix(0.0776699,0,0,0.0776699,128,168.388)"
font-family="Microsoft YaHei UI" font-size="9" font-weight="400" font-style="normal" 
>
<path vector-effect="none" fill-rule="evenodd" d="M-198,-1288 L-173,-1331.3 L-223,-1331.3 L-198,-1288"/>
</g>

<g fill="none" stroke="#000000" stroke-opacity="1" stroke-width="1" stroke-linecap="square" stroke-linejoin="bevel" transform="matrix(0.0776699,0,0,0.0776699,128,168.388)"
font-family="Microsoft YaHei UI" font-size="9" font-weight="400" font-style="normal" 
>
</g>

<g fill="none" stroke="#000000" stroke-opacity="1" stroke-width="1" stroke-linecap="square" stroke-linejoin="bevel" transform="matrix(1,0,0,1,0,0)"
font-family="Microsoft YaHei UI" font-size="9" font-weight="400" font-style="normal" 
>
</g>
</g>
</svg>
